# xmcd
#
# Track frame offsets:
#	150
#	12631
#	25458
#	39482
#	40240
#	51915
#	65669
#	78321
#	88562
#	104677
#	118302
#	132270
#	144188
#	156533
#	169427
#	181074
#	187758
#
# Disc length: 2683 seconds
# Revision: 0
# Processed by: cddbd v1.5.2PL0 Copyright (c) Steve Scherf et al.
# Submitted via: dBpowerAMP V12.0
#
DISCID=f00a7911
DTITLE=Earls of Leicester - Rattle and Roar
DYEAR=2016
DGENRE=Country
TTITLE0=The Train That Carried My Girl from Town
TTITLE1=Why Did You Wander?
TTITLE2=All I Want Is You
TTITLE3=Steel Guitar Blues Intro
TTITLE4=Steel Guitar Blues
TTITLE5=You Can Feel It in Your Soul
TTITLE6=A Faded Red Ribbon
TTITLE7=Just Ain't
TTITLE8=Mother Prays Loud in Her Sleep
TTITLE9=I'm Working on a Road (To Glory Land)
TTITLE10=Will You Be Lonesome Too?
TTITLE11=Flint Hill Special
TTITLE12=What's Good for You (Should Be Alright for Me)
TTITLE13=The Girl I Love Don't Pay Me No Mind
TTITLE14=Branded Wherever I Go
TTITLE15=Buck Creek Gal
TTITLE16=Pray for the Boys
EXTD=
EXTT0=
EXTT1=
EXTT2=
EXTT3=
EXTT4=
EXTT5=
EXTT6=
EXTT7=
EXTT8=
EXTT9=
EXTT10=
EXTT11=
EXTT12=
EXTT13=
EXTT14=
EXTT15=
EXTT16=
PLAYORDER=
